<?xml version="1.0" encoding="UTF-8" standalone="no"?>
<!-- Created with Inkscape (http://www.inkscape.org/) -->

<svg
   xmlns:dc="http://purl.org/dc/elements/1.1/"
   xmlns:cc="http://creativecommons.org/ns#"
   xmlns:rdf="http://www.w3.org/1999/02/22-rdf-syntax-ns#"
   xmlns:svg="http://www.w3.org/2000/svg"
   xmlns="http://www.w3.org/2000/svg"
   xmlns:sodipodi="http://sodipodi.sourceforge.net/DTD/sodipodi-0.dtd"
   xmlns:inkscape="http://www.inkscape.org/namespaces/inkscape"
   width="1100"
   height="1100"
   id="svg2"
   version="1.1"
   inkscape:version="0.48.5 r10040"
   sodipodi:docname="levinuxlogo2.svg"
   inkscape:export-filename="C:\cygwin64\home\mlevine\Dropbox\svg\levinuxlogo2.png"
   inkscape:export-xdpi="90"
   inkscape:export-ydpi="90">
  <defs
     id="defs4" />
  <sodipodi:namedview
     id="base"
     pagecolor="#ffffff"
     bordercolor="#666666"
     borderopacity="1.0"
     inkscape:pageopacity="0.0"
     inkscape:pageshadow="2"
     inkscape:zoom="0.35355339"
     inkscape:cx="546.18756"
     inkscape:cy="641.2797"
     inkscape:document-units="px"
     inkscape:current-layer="layer1"
     showgrid="false"
     inkscape:window-width="858"
     inkscape:window-height="678"
     inkscape:window-x="845"
     inkscape:window-y="84"
     inkscape:window-maximized="0" />
  <metadata
     id="metadata7">
    <rdf:RDF>
      <cc:Work
         rdf:about="">
        <dc:format>image/svg+xml</dc:format>
        <dc:type
           rdf:resource="http://purl.org/dc/dcmitype/StillImage" />
        <dc:title></dc:title>
      </cc:Work>
    </rdf:RDF>
  </metadata>
  <g
     inkscape:label="Layer 1"
     inkscape:groupmode="layer"
     id="layer1"
     transform="translate(0,47.637832)">
    <path
       style="color:#000000;fill:#005a00;fill-opacity:1;fill-rule:nonzero;stroke:none;stroke-width:15;marker:none;visibility:visible;display:inline;overflow:visible;enable-background:accumulate"
       d="m 587.54384,7.9465067 0,646.1774733 c -0.30458,38.99925 4.45805,64.4372 13.74845,75.08772 9.28872,10.65155 24.8474,15.10892 47.59082,13.74846 l 225.26317,0 c 56.89645,4.04416 97.63588,-9.49312 121.62098,-41.24537 10.13884,-13.42323 20.65914,-36.01842 30.66964,-64.51199 12.2791,-43.16965 19.0364,-88.26222 19.0364,-135.36942 0,-260.8606 -202.05317,-474.426166 -457.92946,-493.8868733 z M 897.4129,854.00539 l -695.88343,0 c 89.50288,88.4277 212.18345,142.77244 347.94172,142.77244 135.75827,0 258.43884,-54.34474 347.94171,-142.77244 z m -768.856,-92.00891 c 67.02681,2.0407 110.62152,-7.87003 130.08155,-29.61206 19.45901,-21.74168 27.54429,-67.45424 25.38176,-137.48456 l 0,-510.808055 C 146.02361,172.06535 54.526741,326.04975 54.526741,501.83338 c 0,95.58401 27.15037,184.46452 74.030159,260.1631 z"
       id="path3020"
       inkscape:connector-curvature="0"
       sodipodi:nodetypes="cccccccscccscccccsc" />
    <g
       id="g3022"
       style="font-size:40px;font-style:normal;font-variant:normal;font-weight:900;font-stretch:normal;text-align:start;line-height:125%;letter-spacing:0px;word-spacing:0px;writing-mode:lr-tb;text-anchor:start;fill:#000000;fill-opacity:1;stroke:none;font-family:Kozuka Mincho Pro H;-inkscape-font-specification:Kozuka Mincho Pro H Heavy"
       transform="translate(85.357143,9.6428572)" />
  </g>
</svg>
