<?xml version="1.0" encoding="UTF-8" standalone="no"?>
<!-- Created with Inkscape (http://www.inkscape.org/) -->

<svg
   xmlns:dc="http://purl.org/dc/elements/1.1/"
   xmlns:cc="http://creativecommons.org/ns#"
   xmlns:rdf="http://www.w3.org/1999/02/22-rdf-syntax-ns#"
   xmlns:svg="http://www.w3.org/2000/svg"
   xmlns="http://www.w3.org/2000/svg"
   xmlns:xlink="http://www.w3.org/1999/xlink"
   xmlns:sodipodi="http://sodipodi.sourceforge.net/DTD/sodipodi-0.dtd"
   xmlns:inkscape="http://www.inkscape.org/namespaces/inkscape"
   id="svg3004"
   version="1.1"
   inkscape:version="0.48.5 r10040"
   width="540"
   height="540"
   xml:space="preserve"
   sodipodi:docname="mike-levin-ambigram-grey.svg"
   inkscape:export-filename="/home/miklevin/Dropbox/AmbigramLogo/mike-levin-ambigram.png"
   inkscape:export-xdpi="80"
   inkscape:export-ydpi="80"><metadata
     id="metadata3010"><rdf:RDF><cc:Work
         rdf:about=""><dc:format>image/svg+xml</dc:format><dc:type
           rdf:resource="http://purl.org/dc/dcmitype/StillImage" /><dc:title></dc:title></cc:Work></rdf:RDF></metadata><defs
     id="defs3008"><linearGradient
       id="linearGradient3890"><stop
         style="stop-color:#ffffff;stop-opacity:1;"
         offset="0"
         id="stop3892" /><stop
         style="stop-color:#ffffff;stop-opacity:0;"
         offset="1"
         id="stop3894" /></linearGradient><linearGradient
       id="linearGradient3882"><stop
         style="stop-color:#ffffff;stop-opacity:0.50196081;"
         offset="0"
         id="stop3884" /><stop
         style="stop-color:#000000;stop-opacity:0;"
         offset="1"
         id="stop3886" /></linearGradient><linearGradient
       id="linearGradient3830"><stop
         style="stop-color:#000000;stop-opacity:0.27972028;"
         offset="0"
         id="stop3832" /><stop
         style="stop-color:#000000;stop-opacity:0.7132867;"
         offset="1"
         id="stop3834" /></linearGradient><clipPath
       clipPathUnits="userSpaceOnUse"
       id="clipPath3020"><path
         d="M 0,1424.86 0,0 l 2698.91,0 0,1424.86 -2698.91,0 z"
         id="path3022"
         inkscape:connector-curvature="0" /></clipPath><radialGradient
       inkscape:collect="always"
       xlink:href="#linearGradient3830"
       id="radialGradient3860"
       cx="384.47217"
       cy="403.09958"
       fx="384.47217"
       fy="403.09958"
       r="246.03209"
       gradientUnits="userSpaceOnUse" /><radialGradient
       inkscape:collect="always"
       xlink:href="#linearGradient3830"
       id="radialGradient3870"
       gradientUnits="userSpaceOnUse"
       cx="384.47217"
       cy="403.09958"
       fx="384.47217"
       fy="403.09958"
       r="246.03209" /><linearGradient
       inkscape:collect="always"
       xlink:href="#linearGradient3882"
       id="linearGradient3888"
       x1="392.99042"
       y1="138.66811"
       x2="395.39804"
       y2="474.53577"
       gradientUnits="userSpaceOnUse" /><linearGradient
       inkscape:collect="always"
       xlink:href="#linearGradient3882"
       id="linearGradient3898"
       gradientUnits="userSpaceOnUse"
       x1="392.99042"
       y1="138.66811"
       x2="395.39804"
       y2="474.53577" /><linearGradient
       inkscape:collect="always"
       xlink:href="#linearGradient3882"
       id="linearGradient3902"
       gradientUnits="userSpaceOnUse"
       x1="392.99042"
       y1="138.66811"
       x2="395.39804"
       y2="474.53577" /><linearGradient
       inkscape:collect="always"
       xlink:href="#linearGradient3882-7"
       id="linearGradient3888-8"
       x1="392.99042"
       y1="138.66811"
       x2="395.39804"
       y2="474.53577"
       gradientUnits="userSpaceOnUse" /><linearGradient
       id="linearGradient3882-7"><stop
         style="stop-color:#ffffff;stop-opacity:0.50196081;"
         offset="0"
         id="stop3884-7" /><stop
         style="stop-color:#000000;stop-opacity:0;"
         offset="1"
         id="stop3886-4" /></linearGradient><linearGradient
       id="linearGradient3965"><stop
         style="stop-color:#ffffff;stop-opacity:0.50196081;"
         offset="0"
         id="stop3967" /><stop
         style="stop-color:#000000;stop-opacity:0;"
         offset="1"
         id="stop3969" /></linearGradient><linearGradient
       id="linearGradient3972"><stop
         style="stop-color:#ffffff;stop-opacity:0.50196081;"
         offset="0"
         id="stop3974" /><stop
         style="stop-color:#000000;stop-opacity:0;"
         offset="1"
         id="stop3976" /></linearGradient><radialGradient
       inkscape:collect="always"
       xlink:href="#linearGradient3830"
       id="radialGradient3122"
       gradientUnits="userSpaceOnUse"
       cx="384.47217"
       cy="403.09958"
       fx="384.47217"
       fy="403.09958"
       r="246.03209" /><linearGradient
       inkscape:collect="always"
       xlink:href="#linearGradient3882-7"
       id="linearGradient3124"
       gradientUnits="userSpaceOnUse"
       x1="392.99042"
       y1="138.66811"
       x2="395.39804"
       y2="474.53577" /><linearGradient
       inkscape:collect="always"
       xlink:href="#linearGradient3882-7"
       id="linearGradient3126"
       gradientUnits="userSpaceOnUse"
       x1="392.99042"
       y1="138.66811"
       x2="395.39804"
       y2="474.53577" /><linearGradient
       inkscape:collect="always"
       xlink:href="#linearGradient3882-7"
       id="linearGradient3128"
       gradientUnits="userSpaceOnUse"
       x1="392.99042"
       y1="138.66811"
       x2="395.39804"
       y2="474.53577" /></defs><sodipodi:namedview
     pagecolor="#ffffff"
     bordercolor="#666666"
     borderopacity="1"
     objecttolerance="10"
     gridtolerance="10"
     guidetolerance="10"
     inkscape:pageopacity="0"
     inkscape:pageshadow="2"
     inkscape:window-width="1159"
     inkscape:window-height="805"
     id="namedview3006"
     showgrid="false"
     inkscape:zoom="0.76838937"
     inkscape:cx="83.960642"
     inkscape:cy="337.91246"
     inkscape:window-x="197"
     inkscape:window-y="69"
     inkscape:window-maximized="0"
     inkscape:current-layer="g3012"
     fit-margin-top="0"
     fit-margin-left="0"
     fit-margin-right="0"
     fit-margin-bottom="0" /><g
     id="g3012"
     inkscape:groupmode="layer"
     inkscape:label="ink_ext_XXXXXX"
     transform="matrix(1.25,0,0,-1.25,-252.99999,680.50005)"><path
       transform="matrix(0.89260845,0,0,-0.89260845,-86.636605,718.43174)"
       d="m 756.00345,436.95721 c 0,105.04725 -85.15762,190.20487 -190.20487,190.20487 -105.04724,0 -190.20486,-85.15762 -190.20486,-190.20487 0,-105.04724 85.15762,-190.20486 190.20486,-190.20486 105.04725,0 190.20487,85.15762 190.20487,190.20486 z"
       sodipodi:ry="190.20486"
       sodipodi:rx="190.20486"
       sodipodi:cy="436.95721"
       sodipodi:cx="565.79858"
       id="path3052"
       style="fill:none;stroke:#ffffff;stroke-width:8.96249676;stroke-miterlimit:4;stroke-opacity:1;stroke-dasharray:none"
       sodipodi:type="arc" /><g
       id="g3983"
       transform="matrix(1.1705625,0,0,1.1705625,-45.142746,-29.792098)"><g
         id="g3862"><path
           sodipodi:type="arc"
           style="fill:#008000;fill-opacity:1;stroke:none"
           id="path3010"
           sodipodi:cx="384.47217"
           sodipodi:cy="403.09958"
           sodipodi:rx="246.03209"
           sodipodi:ry="246.03209"
           d="m 630.50426,403.09958 c 0,135.87977 -110.15232,246.03209 -246.03209,246.03209 -135.87977,0 -246.03209,-110.15232 -246.03209,-246.03209 0,-135.87977 110.15232,-246.03209 246.03209,-246.03209 135.87977,0 246.03209,110.15232 246.03209,246.03209 z"
           transform="matrix(0.68746177,0,0,-0.68746177,131.69008,583.11557)" /><path
           transform="matrix(0.68746177,0,0,-0.68746177,131.69008,583.11557)"
           d="m 630.50426,403.09958 c 0,135.87977 -110.15232,246.03209 -246.03209,246.03209 -135.87977,0 -246.03209,-110.15232 -246.03209,-246.03209 0,-135.87977 110.15232,-246.03209 246.03209,-246.03209 135.87977,0 246.03209,110.15232 246.03209,246.03209 z"
           sodipodi:ry="246.03209"
           sodipodi:rx="246.03209"
           sodipodi:cy="403.09958"
           sodipodi:cx="384.47217"
           id="path3780"
           style="fill:url(#radialGradient3122);fill-opacity:1;stroke:none"
           sodipodi:type="arc" /></g></g><path
       sodipodi:type="arc"
       style="fill:none;stroke:#ffffff;stroke-width:7.65000391;stroke-miterlimit:4;stroke-opacity:1;stroke-dasharray:none"
       id="path3872"
       sodipodi:cx="565.79858"
       sodipodi:cy="436.95721"
       sodipodi:rx="190.20486"
       sodipodi:ry="190.20486"
       d="m 756.00345,436.95721 a 190.20486,190.20486 0 1 1 -380.40973,0 190.20486,190.20486 0 1 1 380.40973,0 z"
       transform="matrix(0.96849948,0,0,-0.96849948,-129.57564,751.59287)" /><g
       id="g3876"
       style="fill:url(#linearGradient3128);fill-opacity:1;stroke:none"
       transform="matrix(0.81983759,0,0,1.0258269,93.744314,14.496992)"><path
         sodipodi:type="arc"
         style="fill:url(#linearGradient3124);fill-opacity:1;stroke:none"
         id="path3878"
         sodipodi:cx="384.47217"
         sodipodi:cy="403.09958"
         sodipodi:rx="246.03209"
         sodipodi:ry="246.03209"
         d="m 630.50426,403.09958 c 0,135.87977 -110.15232,246.03209 -246.03209,246.03209 -135.87977,0 -246.03209,-110.15232 -246.03209,-246.03209 0,-135.87977 110.15232,-246.03209 246.03209,-246.03209 135.87977,0 246.03209,110.15232 246.03209,246.03209 z"
         transform="matrix(0.68746177,0,0,-0.68746177,131.69008,583.11557)" /><path
         transform="matrix(0.68746177,0,0,-0.68746177,131.69008,583.11557)"
         d="m 630.50426,403.09958 c 0,135.87977 -110.15232,246.03209 -246.03209,246.03209 -135.87977,0 -246.03209,-110.15232 -246.03209,-246.03209 0,-135.87977 110.15232,-246.03209 246.03209,-246.03209 135.87977,0 246.03209,110.15232 246.03209,246.03209 z"
         sodipodi:ry="246.03209"
         sodipodi:rx="246.03209"
         sodipodi:cy="403.09958"
         sodipodi:cx="384.47217"
         id="path3880"
         style="fill:url(#linearGradient3126);fill-opacity:1;stroke:none"
         sodipodi:type="arc" /></g><path
       inkscape:connector-curvature="0"
       style="fill:#ffffff;fill-opacity:1;fill-rule:nonzero;stroke:none"
       d="m 335.85882,410.88332 c -3.22292,0 -5.81724,-2.62441 -5.81724,-5.84618 0,-3.22177 2.59432,-5.81724 5.81724,-5.81724 3.21969,0 5.84619,2.59547 5.84619,5.81724 0,3.22177 -2.6265,5.84618 -5.84619,5.84618 z m -73.68505,-24.36874 0,-47.43513 0,-68.79395 180.36343,0 8.7114,8.68245 -7.46691,7.52479 -6.77231,-6.71443 -164.21408,0 0,59.30114 0,36.90042 19.13033,-29.37563 6.30925,-9.72434 6.33819,9.72434 25.98946,39.91034 -12.64743,0 -19.68022,-30.21493 -19.65128,30.21493 -16.40983,0 z m 68.38876,0 0,-47.43513 10.59259,0 0,47.43513 -10.59259,0 z m 22.95061,0 0,-47.43513 10.59259,0 0,32.47237 c 0,0 24.74962,-24.60444 32.61707,-32.47237 l 15.02064,0 -47.63771,47.43513 -10.59259,0 z m 40.74964,0 -8.7114,-8.68245 7.46691,-7.52479 6.77231,6.71442 164.21409,0 0,-59.30114 0,-36.90041 -19.13033,29.37562 -6.30925,9.72435 -6.33819,-9.72435 -25.98947,-39.91033 12.64744,0 19.68022,30.21493 19.65128,-30.21493 16.40983,0 0,47.43512 0,68.79396 -180.36344,0 z m 111.97467,-116.22908 0,47.43512 -10.59259,0 0,-47.43512 10.59259,0 z m -85.23273,97.59075 0,-9.49281 62.07953,0 0,9.49281 -62.07953,0 z m -0.26047,-19.30398 0,-9.49282 62.10847,0 0,9.49282 -62.10847,0 z m -66.79699,-30.85165 0,-9.49281 62.10847,0 0,9.49281 -62.10847,0 z m 71.10928,0 47.63771,-47.43512 10.59259,0 0,47.43512 -10.59259,0 0,-32.47236 c 0,0 -24.74846,24.60525 -32.61707,32.47236 l -15.02064,0 z m -71.34081,-19.30398 0,-9.49281 62.07952,0 0,9.49281 -62.07952,0 z m 147.22543,-40.83646 c -3.22061,0 -5.84619,-2.59569 -5.84619,-5.81724 0,-3.222 2.62558,-5.84618 5.84619,-5.84618 3.22408,0 5.81724,2.62418 5.81724,5.84618 0,3.22155 -2.59316,5.81724 -5.81724,5.81724 z"
       id="path3024" /><path
       sodipodi:type="arc"
       style="fill:none;stroke:none"
       id="path3046"
       sodipodi:cx="256.8399"
       sodipodi:cy="148.81989"
       sodipodi:rx="421.78296"
       sodipodi:ry="421.78296"
       d="m 678.62286,148.81989 c 0,232.94429 -188.83866,421.78295 -421.78296,421.78295 -232.944291,0 -421.78295,-188.83866 -421.78295,-421.78295 0,-232.944301 188.838659,-421.78296 421.78295,-421.78296 232.9443,0 421.78296,188.838659 421.78296,421.78296 z"
       transform="matrix(0.8,0,0,-0.8,0,612.00002)" /></g></svg>