<?xml version="1.0" encoding="UTF-8" standalone="no"?>
<!-- Created with Inkscape (http://www.inkscape.org/) -->

<svg
   xmlns:dc="http://purl.org/dc/elements/1.1/"
   xmlns:cc="http://creativecommons.org/ns#"
   xmlns:rdf="http://www.w3.org/1999/02/22-rdf-syntax-ns#"
   xmlns:svg="http://www.w3.org/2000/svg"
   xmlns="http://www.w3.org/2000/svg"
   xmlns:sodipodi="http://sodipodi.sourceforge.net/DTD/sodipodi-0.dtd"
   xmlns:inkscape="http://www.inkscape.org/namespaces/inkscape"
   width="1000"
   height="1000"
   id="svg3072"
   version="1.1"
   inkscape:version="0.48.5 r10040"
   sodipodi:docname="stopsignpip.svg">
  <defs
     id="defs3074" />
  <sodipodi:namedview
     id="base"
     pagecolor="#ffffff"
     bordercolor="#666666"
     borderopacity="1.0"
     inkscape:pageopacity="0.0"
     inkscape:pageshadow="2"
     inkscape:zoom="0.70710678"
     inkscape:cx="634.42114"
     inkscape:cy="484.89813"
     inkscape:document-units="px"
     inkscape:current-layer="layer1"
     showgrid="false"
     inkscape:window-width="1490"
     inkscape:window-height="1050"
     inkscape:window-x="208"
     inkscape:window-y="14"
     inkscape:window-maximized="0"
     width="990px"
     fit-margin-top="0"
     fit-margin-left="0"
     fit-margin-right="0"
     fit-margin-bottom="0" />
  <metadata
     id="metadata3077">
    <rdf:RDF>
      <cc:Work
         rdf:about="">
        <dc:format>image/svg+xml</dc:format>
        <dc:type
           rdf:resource="http://purl.org/dc/dcmitype/StillImage" />
        <dc:title></dc:title>
      </cc:Work>
    </rdf:RDF>
  </metadata>
  <g
     inkscape:label="Layer 1"
     inkscape:groupmode="layer"
     id="layer1"
     transform="translate(-15.851937,-25.460398)">
    <path
       style="font-size:140.88931273999998000px;font-style:normal;font-variant:normal;font-weight:normal;font-stretch:normal;text-align:start;line-height:125%;letter-spacing:0px;word-spacing:0px;writing-mode:lr-tb;text-anchor:start;fill:#ffffff;fill-opacity:1;stroke:none;font-family:Paytone One;-inkscape-font-specification:Paytone One"
       d="m 1012.9111,731.34904 0,-411.77733 -291.17052,-291.17052 -411.77733,1.9e-5 -291.170521,291.170551 1.8e-5,411.77732 291.170553,291.17052 411.77732,0 z"
       id="path4603" />
    <g
       style="font-size:61.33996964px;font-style:oblique;font-variant:normal;font-weight:normal;font-stretch:normal;text-align:start;line-height:125%;letter-spacing:0px;word-spacing:0px;writing-mode:lr-tb;text-anchor:start;fill:#000000;fill-opacity:1;stroke:none;font-family:Impact;-inkscape-font-specification:Impact Oblique"
       id="text3387" />
    <path
       id="path3410"
       style="font-size:140.88931274px;font-style:normal;font-variant:normal;font-weight:normal;font-stretch:normal;text-align:start;line-height:125%;letter-spacing:0px;word-spacing:0px;writing-mode:lr-tb;text-anchor:start;fill:#ff0000;fill-opacity:1;stroke:none;font-family:Paytone One;-inkscape-font-specification:Paytone One"
       d="m 396.26819,666.1265 c -0.80121,2.35617 -1.42176,3.84374 -1.86165,4.46272 -0.43993,0.619 -1.03926,0.92849 -1.79801,0.92849 -0.73881,0 -1.13102,-0.29951 -1.17652,-0.89854 -0.0456,-0.59901 0.29419,-1.96678 1.01928,-4.10331 l 5.82363,-17.13206 c 0.7525,-2.21635 1.33186,-3.5991 1.7381,-4.14823 0.40619,-0.54907 0.97869,-0.82363 1.71751,-0.82366 0.75874,3e-5 1.16121,0.31452 1.20741,0.94346 0.0461,0.62901 -0.2802,1.97182 -0.97903,4.02843 z m -3.28527,-36.78002 -16.47875,48.49092 11.32154,0 1.79707,-2.99511 c 0.59776,1.23798 1.40519,2.16646 2.4223,2.78545 1.01707,0.61899 2.23446,0.92849 3.65217,0.92849 1.97675,0 3.86211,-0.52415 5.65608,-1.57244 1.79393,-1.04828 3.12831,-2.28626 4.00316,-3.71394 0.8748,-1.42766 1.80765,-3.59912 2.79857,-6.51438 l 6.08757,-17.91079 c 0.99708,-2.93518 1.58331,-4.85205 1.75869,-5.75062 0.1753,-0.8985 0.10292,-1.817 -0.21714,-2.75551 -0.32015,-0.93843 -1.00091,-1.66724 -2.0423,-2.18643 -1.04146,-0.51911 -2.39082,-0.77869 -4.04808,-0.77873 -1.43769,4e-5 -2.86724,0.28458 -4.28864,0.85361 -1.42146,0.56911 -2.82791,1.4327 -4.21936,2.59077 l 3.89739,-11.47129 z m 35.84405,22.85273 0.98652,-2.90526 c 0.75998,-2.23632 1.32624,-3.60908 1.69879,-4.11828 0.37249,-0.50914 0.97806,-0.76373 1.81672,-0.76376 0.67887,3e-5 1.02638,0.29955 1.04268,0.89854 0.0162,0.59905 -0.32513,1.92688 -1.02396,3.9835 l -0.98651,2.90526 z m 15.25637,1.19805 c 1.30908,-3.85369 1.88095,-6.84381 1.71564,-8.97037 -0.1654,-2.1265 -1.13257,-3.83371 -2.90152,-5.12165 -1.76902,-1.28786 -4.35075,-1.93181 -7.74518,-1.93185 -2.7755,4e-5 -5.41307,0.53417 -7.91272,1.60239 -2.49969,1.06829 -4.55977,2.60578 -6.18024,4.61247 -1.62049,2.00676 -3.02102,4.74729 -4.20158,8.2216 l -3.93858,11.59109 c -1.00462,2.9552 -1.56027,5.20652 -1.66697,6.75399 -0.1067,1.54748 0.16535,2.96517 0.81617,4.25306 0.65081,1.28791 1.82889,2.30125 3.53424,3.04005 1.70533,0.73879 3.83592,1.10819 6.39176,1.10819 2.63568,0 4.9544,-0.37439 6.95616,-1.12317 2.00171,-0.74878 3.82623,-1.87194 5.47357,-3.3695 1.64729,-1.49756 2.8497,-2.90526 3.60724,-4.22312 0.75749,-1.31784 1.55369,-3.20476 2.38861,-5.66077 l 0.99587,-2.93521 -11.47129,0 -1.78022,5.24145 c -0.67143,1.97679 -1.27919,3.30961 -1.82328,3.99848 -0.54413,0.68889 -1.27544,1.03332 -2.19392,1.03332 -0.73881,0 -1.14968,-0.25957 -1.23268,-0.77873 -0.083,-0.51915 0.18063,-1.67726 0.7909,-3.47434 l 2.92211,-8.59598 15.66446,0 z m 23.1485,-24.05078 c -2.69563,5e-5 -4.74323,0.17975 -6.14279,0.53912 -1.39962,0.35946 -2.57115,0.88361 -3.51459,1.57244 -0.94348,0.68892 -1.65419,1.47264 -2.13214,2.35116 -0.47799,0.87861 -1.16125,2.62576 -2.04979,5.24145 l -2.48594,0 -2.13777,6.28975 2.48595,0 -11.04449,32.497 12.10027,0 11.04449,-32.497 2.87531,0 2.13776,-6.28975 -5.09169,0 0.4268,-1.25794 c 0.36688,-1.07821 0.81396,-1.73214 1.34125,-1.96181 0.52724,-0.22958 2.03883,-0.34439 4.53479,-0.34443 l 2.08535,-6.13999 z m 9.08831,38.03797 c -0.58407,1.71721 -1.0792,2.83538 -1.48539,3.35453 -0.40624,0.51916 -0.96875,0.77873 -1.68756,0.77873 -0.69888,0 -1.07136,-0.28453 -1.11756,-0.85361 -0.0462,-0.56906 0.24958,-1.79207 0.88731,-3.66902 l 6.09693,-17.94074 c 0.69259,-2.03665 1.24856,-3.31955 1.6679,-3.84872 0.41929,-0.52911 0.98837,-0.79368 1.70722,-0.79371 0.7188,3e-5 1.09814,0.2646 1.13814,0.79371 0.0399,0.52917 -0.28643,1.81207 -0.97902,3.84872 z m 18.86455,-21.62474 c 0.0792,-1.37772 -0.18973,-2.71553 -0.80681,-4.01345 -0.61716,-1.29785 -1.76186,-2.35113 -3.43409,-3.15985 -1.67231,-0.80864 -3.86623,-1.21298 -6.58177,-1.21302 -3.23475,4e-5 -6.10413,0.62901 -8.60815,1.88692 -2.50406,1.25799 -4.50829,2.92527 -6.01269,5.00185 -1.50444,2.07664 -2.88437,4.96193 -4.13981,8.65588 l -3.46123,10.18339 c -1.14689,3.37451 -1.78741,5.90538 -1.92156,7.59262 -0.13416,1.68726 0.11107,3.12491 0.73568,4.31297 0.6246,1.18806 1.76524,2.07661 3.42192,2.66565 1.65666,0.58904 3.82281,0.88356 6.49846,0.88356 2.39608,0 4.63492,-0.34444 6.71655,-1.03331 2.08158,-0.68888 3.95727,-1.75714 5.62707,-3.20478 1.66975,-1.44763 2.96763,-3.00509 3.89365,-4.67238 0.92596,-1.66727 1.99671,-4.28799 3.21226,-7.86218 l 3.30774,-9.73412 c 0.9559,-2.81538 1.47348,-4.91196 1.55278,-6.28975 z m 7.20418,-7.66749 -13.50797,39.74518 12.10027,0 5.33317,-15.6944 c 1.31035,-3.8537 2.26691,-6.31468 2.8697,-7.38296 0.60274,-1.06824 1.52499,-1.90188 2.76674,-2.50093 1.2417,-0.59899 2.97075,-0.8985 5.18716,-0.89853 l 4.75288,-13.98719 c -3.40947,0.21968 -6.62735,2.19646 -9.65363,5.93033 l 2.25195,-5.2115 z m 28.87105,14.10699 0.98652,-2.90526 c 0.75999,-2.23632 1.32625,-3.60908 1.69879,-4.11828 0.37249,-0.50914 0.97807,-0.76373 1.81673,-0.76376 0.67886,3e-5 1.02647,0.29955 1.04267,0.89854 0.0162,0.59905 -0.32512,1.92688 -1.02395,3.9835 l -0.98652,2.90526 z m 15.25637,1.19805 c 1.30908,-3.85369 1.88096,-6.84381 1.71564,-8.97037 -0.16539,-2.1265 -1.13256,-3.83371 -2.90151,-5.12165 -1.76903,-1.28786 -4.35075,-1.93181 -7.74519,-1.93185 -2.7755,4e-5 -5.41307,0.53417 -7.91272,1.60239 -2.49969,1.06829 -4.55977,2.60578 -6.18023,4.61247 -1.6205,2.00676 -3.02102,4.74729 -4.20159,8.2216 l -3.93858,11.59109 c -1.00461,2.9552 -1.56027,5.20652 -1.66696,6.75399 -0.10671,1.54748 0.16535,2.96517 0.81616,4.25306 0.65081,1.28791 1.82889,2.30125 3.53424,3.04005 1.70533,0.73879 3.83592,1.10819 6.39177,1.10819 2.63568,0 4.9544,-0.37439 6.95615,-1.12317 2.00171,-0.74878 3.82624,-1.87194 5.47358,-3.3695 1.64728,-1.49756 2.84969,-2.90526 3.60724,-4.22312 0.75748,-1.31784 1.55368,-3.20476 2.3886,-5.66077 l 0.99588,-2.93521 -11.47129,0 -1.78023,5.24145 c -0.67142,1.97679 -1.27918,3.30961 -1.82327,3.99848 -0.54414,0.68889 -1.27544,1.03332 -2.19393,1.03332 -0.73881,0 -1.14967,-0.25957 -1.23267,-0.77873 -0.083,-0.51915 0.18062,-1.67726 0.7909,-3.47434 l 2.92211,-8.59598 15.66445,0 z m 34.31466,-15.30504 -11.02764,26.80628 5.15721,-26.80628 -10.99207,0 -4.67987,33.24578 c -0.33571,2.456 -0.55785,3.84374 -0.66641,4.16321 -0.2234,0.65893 -0.6371,1.08324 -1.2411,1.27293 -0.60403,0.18973 -1.8445,0.28453 -3.72144,0.28453 l -2.15648,6.34965 7.33803,0 c 3.35452,-10e-6 5.88196,-0.25459 7.58233,-0.76376 1.70033,-0.50917 3.16295,-1.30288 4.38784,-2.38111 1.22486,-1.07825 2.30372,-2.44602 3.2366,-4.10331 0.93283,-1.6573 2.44255,-4.76223 4.52918,-9.31481 l 13.24589,-28.75311 z m 18.52854,29.29223 c -0.58407,1.71721 -1.0792,2.83538 -1.48539,3.35453 -0.40623,0.51916 -0.96875,0.77873 -1.68756,0.77873 -0.69888,0 -1.07135,-0.28453 -1.11755,-0.85361 -0.0462,-0.56906 0.24957,-1.79207 0.8873,-3.66902 l 6.09693,-17.94074 c 0.6926,-2.03665 1.24857,-3.31955 1.66791,-3.84872 0.41929,-0.52911 0.98836,-0.79368 1.70721,-0.79371 0.7188,3e-5 1.09815,0.2646 1.13815,0.79371 0.0399,0.52917 -0.28644,1.81207 -0.97903,3.84872 z m 18.86455,-21.62474 c 0.0792,-1.37772 -0.18973,-2.71553 -0.80681,-4.01345 -0.61716,-1.29785 -1.76185,-2.35113 -3.43409,-3.15985 -1.67231,-0.80864 -3.86623,-1.21298 -6.58177,-1.21302 -3.23475,4e-5 -6.10413,0.62901 -8.60815,1.88692 -2.50405,1.25799 -4.50828,2.92527 -6.01269,5.00185 -1.50443,2.07664 -2.88437,4.96193 -4.13981,8.65588 l -3.46123,10.18339 c -1.14689,3.37451 -1.7874,5.90538 -1.92156,7.59262 -0.13416,1.68726 0.11107,3.12491 0.73568,4.31297 0.6246,1.18806 1.76524,2.07661 3.42192,2.66565 1.65666,0.58904 3.82281,0.88356 6.49846,0.88356 2.39608,0 4.63493,-0.34444 6.71655,-1.03331 2.08158,-0.68888 3.95727,-1.75714 5.62707,-3.20478 1.66975,-1.44763 2.96763,-3.00509 3.89366,-4.67238 0.92595,-1.66727 1.99671,-4.28799 3.21226,-7.86218 l 3.30773,-9.73412 c 0.9559,-2.81538 1.47348,-4.91196 1.55278,-6.28975 z m 22.8087,-7.66749 -9.09018,26.74638 c -1.10572,3.2547 -1.84545,5.18156 -2.21919,5.78057 -0.37379,0.59903 -1.00994,0.89854 -1.90845,0.89854 -0.83865,0 -1.25472,-0.28952 -1.24672,-0.86859 0.007,-0.57904 0.53723,-2.41605 1.58928,-5.51101 l 9.19126,-27.04589 -12.10026,0 -9.11077,26.80628 c -1.16061,3.41444 -1.86602,5.69572 -2.11624,6.84384 -0.25018,1.14813 -0.27046,2.25133 -0.0608,3.3096 0.20966,1.05828 0.80462,1.9069 1.78491,2.54585 0.98027,0.63896 2.37892,0.95844 4.19597,0.95844 1.59738,0 3.12395,-0.33445 4.57972,-1.00336 1.45573,-0.66891 2.83005,-1.67227 4.12296,-3.01009 l -1.32908,3.29462 12.30992,0 13.50797,-39.74518 z M 244.59873,748.2859 c -1.00902,-0.0458 -1.83454,-0.11458 -2.47657,-0.20638 l 0,-23.665 6.05384,0 c 2.20134,7e-5 4.24222,0.25232 6.12263,0.75673 1.8803,0.50456 3.51988,1.24982 4.91874,2.23579 1.39875,0.98611 2.49944,2.21293 3.30209,3.68046 0.80254,1.46766 1.20383,3.1875 1.20389,5.15952 -6e-5,4.03595 -1.37593,7.06287 -4.12761,9.08075 -2.7518,2.018 -6.55838,3.02698 -11.41974,3.02692 -1.37592,10e-6 -2.56834,-0.0229 -3.57727,-0.0688 z m -32.88335,52.7647 30.40678,0 0,-33.15852 5.91625,0 c 6.09965,3e-5 11.82098,-0.7223 17.16401,-2.167 5.3429,-1.44463 10.00939,-3.53137 13.99949,-6.26022 3.98995,-2.72877 7.13153,-6.04232 9.42473,-9.94068 2.29303,-3.89824 3.43959,-8.32396 3.43968,-13.27716 -9e-5,-5.09066 -1.00906,-9.61957 -3.02692,-13.58674 -2.01803,-3.96702 -4.95322,-7.32643 -8.80558,-10.07826 -3.85252,-2.75166 -8.59927,-4.83839 -14.24028,-6.26022 -5.64113,-1.42164 -12.08479,-2.13251 -19.331,-2.1326 l -34.94716,0 z M 342.9048,777.66077 c -2.018,1.10072 -3.94422,1.65107 -5.77867,1.65105 -1.83453,2e-5 -3.34799,-0.56179 -4.54038,-1.68545 -1.19246,-1.1236 -1.78867,-2.80904 -1.78863,-5.05633 l 0,-42.10169 -29.85643,0 0,43.47757 c 0,4.26522 0.55035,8.14059 1.65105,11.62612 1.10069,3.48555 2.71734,6.45514 4.84995,8.90877 2.13259,2.45364 4.75821,4.34546 7.87687,5.67547 3.11862,1.33001 6.67295,1.99501 10.66301,1.99502 6.74173,-10e-6 12.88729,-1.60519 18.43669,-4.81556 z m -41.27617,-64.97556 c 0.82552,1.71992 1.94914,3.23338 3.37089,4.54037 1.42172,1.30717 3.10716,2.3276 5.05633,3.06132 1.94913,0.73388 4.04734,1.10078 6.29461,1.1007 2.06379,8e-5 4.04733,-0.35536 5.95065,-1.0663 1.90326,-0.71079 3.5887,-1.69683 5.05633,-2.95813 1.46756,-1.26113 2.63705,-2.76312 3.50847,-4.50598 0.87135,-1.74268 1.30705,-3.6689 1.30708,-5.77866 -3e-5,-1.69682 -0.3784,-3.38226 -1.13509,-5.05633 -0.75677,-1.67388 -1.82307,-3.18734 -3.1989,-4.54038 -1.37591,-1.35284 -3.03842,-2.45353 -4.98754,-3.30209 -1.94918,-0.84835 -4.11618,-1.27258 -6.501,-1.27269 -2.06383,1.1e-4 -4.05884,0.34408 -5.98504,1.03191 -1.92624,0.68804 -3.62314,1.66262 -5.09073,2.92373 -1.4676,1.26132 -2.64856,2.76331 -3.54287,4.50598 -0.89432,1.74287 -1.34148,3.64615 -1.34147,5.70987 -1e-5,2.01804 0.41275,3.88693 1.23828,5.60668 z m 80.6949,52.59271 c 0.13755,-1.46756 0.52738,-3.00395 1.16949,-4.60917 0.64203,-1.60514 1.53635,-3.06127 2.68295,-4.36839 1.14652,-1.30704 2.55678,-2.3848 4.2308,-3.2333 1.67394,-0.84841 3.61162,-1.27264 5.81306,-1.27269 1.69686,5e-5 3.39377,0.32109 5.09073,0.96311 1.69685,0.64213 3.22178,1.55937 4.57478,2.75175 1.35288,1.19247 2.44211,2.66006 3.26769,4.40279 0.82546,1.74281 1.23822,3.71489 1.23829,5.91625 -7e-5,1.88039 -0.3555,3.66902 -1.0663,5.3659 -0.71093,1.69694 -1.69697,3.18747 -2.95813,4.47159 -1.26127,1.28417 -2.76327,2.30461 -4.50598,3.06131 -1.74283,0.75675 -3.62318,1.13512 -5.64108,1.1351 -1.83454,2e-5 -3.58878,-0.35542 -5.26271,-1.0663 -1.67402,-0.71085 -3.15308,-1.69689 -4.43718,-2.95813 -1.28419,-1.26119 -2.30463,-2.74025 -3.06132,-4.43719 -0.75677,-1.69688 -1.13513,-3.5543 -1.13509,-5.57228 z m 35.60069,34.84396 c 3.92116,-1.35293 7.57868,-3.72631 10.97258,-7.12013 7.29203,-7.29211 10.93809,-16.34993 10.93818,-27.17348 -9e-5,-10.96107 -3.66908,-20.04182 -11.00697,-27.24227 -3.48563,-3.39375 -7.18901,-5.76713 -11.11017,-7.12014 -3.92131,-1.35287 -8.06038,-2.02934 -12.41725,-2.02941 -5.22837,7e-5 -9.75728,1.10077 -13.58674,3.30209 -3.82955,2.20147 -6.95966,5.84752 -9.39032,10.93819 l 0,-12.17647 -29.71884,0 0,93.49051 29.71884,-5.64107 0,-31.36989 c 2.52239,5.09074 5.70982,8.72533 9.56231,10.90379 3.85239,2.17846 8.36983,3.26769 13.55234,3.2677 4.40273,-10e-6 8.56473,-0.67648 12.48604,-2.02942 z m 61.12312,-69.65353 -29.03091,0 0,40.31306 c 0,4.95317 0.9975,9.37888 2.99253,13.27717 1.995,3.89831 4.71234,7.18894 8.15204,9.87188 3.43966,2.68295 7.47555,4.72383 12.10767,6.12263 4.63207,1.3988 9.58521,2.0982 14.85942,2.09821 5.36586,-10e-6 10.31899,-0.72234 14.85942,-2.167 4.54032,-1.44467 8.47302,-3.51994 11.79811,-6.22582 3.32495,-2.70588 5.92764,-5.9965 7.80807,-9.87189 1.88028,-3.87535 2.82046,-8.24374 2.82054,-13.10518 l 0,-40.31306 -28.48055,0 0,41.27617 c -6e-5,1.19245 -0.22937,2.29315 -0.68794,3.30209 -0.45868,1.009 -1.07782,1.89185 -1.85743,2.64856 -0.77971,0.75675 -1.69696,1.35296 -2.75174,1.78863 -1.05488,0.43572 -2.17851,0.65356 -3.37089,0.65354 -1.23833,2e-5 -2.41928,-0.20636 -3.54287,-0.61914 -1.12367,-0.41274 -2.10971,-0.98602 -2.95812,-1.71984 -0.8485,-0.73378 -1.5135,-1.61663 -1.99502,-2.64856 -0.48159,-1.03187 -0.72237,-2.16697 -0.72233,-3.40528 z m 105.04784,47.19242 c -2.20144,1.10072 -4.35697,1.65107 -6.4666,1.65105 -2.75179,2e-5 -4.93025,-0.60766 -6.53539,-1.82303 -1.60522,-1.21533 -2.40781,-3.08422 -2.40778,-5.60668 l 0,-68.10568 -29.71884,4.40279 0,65.7667 c 0,4.35695 0.55034,8.26671 1.65105,11.72931 1.10069,3.46262 2.71734,6.42074 4.84995,8.87437 2.13259,2.45364 4.75821,4.334 7.87687,5.64108 3.11862,1.30708 6.67295,1.96061 10.66301,1.96062 7.7507,-10e-6 14.81351,-1.60519 21.18843,-4.81556 z m 62.67099,-11.28215 c -0.0918,1.78867 -0.50455,3.49704 -1.23829,5.12512 -0.73385,1.62815 -1.71989,3.06134 -2.95812,4.2996 -1.23834,1.23831 -2.68301,2.22435 -4.334,2.95813 -1.6511,0.73382 -3.43973,1.10072 -5.3659,1.1007 -1.8804,2e-5 -3.66904,-0.35542 -5.3659,-1.0663 -1.69695,-0.71085 -3.19894,-1.68542 -4.50598,-2.92373 -1.30712,-1.23826 -2.35049,-2.71732 -3.13011,-4.43719 -0.7797,-1.71981 -1.16953,-3.5887 -1.16949,-5.60668 -4e-5,-1.92618 0.36686,-3.73775 1.10069,-5.4347 0.73377,-1.69686 1.73127,-3.17592 2.99253,-4.43718 1.26117,-1.26117 2.7517,-2.27014 4.47158,-3.02692 1.7198,-0.75668 3.58869,-1.13505 5.60668,-1.1351 1.78858,5e-5 3.50842,0.35549 5.15952,1.0663 1.65099,0.71092 3.10712,1.67403 4.36839,2.88934 1.26116,1.21539 2.2816,2.64859 3.06132,4.2996 0.7796,1.65108 1.21528,3.39385 1.30708,5.22831 z m 0,34.67198 29.58125,0 0,-71.61415 -29.58125,0 0,16.44167 c -1.10076,-2.88927 -2.4881,-5.36584 -4.16201,-7.42971 -1.67404,-2.06374 -3.53146,-3.77211 -5.57229,-5.12512 -2.04092,-1.35287 -4.19645,-2.33891 -6.4666,-2.95813 -2.27023,-0.61907 -4.57481,-0.92864 -6.91375,-0.92871 -4.54042,7e-5 -8.88587,0.88292 -13.03639,2.64855 -4.15057,1.76577 -7.81956,4.24234 -11.00698,7.42971 -3.18745,3.1875 -5.73281,6.98261 -7.63609,11.38535 -1.9033,4.40283 -2.85494,9.21838 -2.85494,14.44665 0,5.27421 0.94018,10.15855 2.82054,14.65304 1.88035,4.49454 4.40278,8.38137 7.5673,11.66052 3.16449,3.27917 6.83348,5.84746 11.00698,7.70488 4.17345,1.85743 8.5533,2.78614 13.13958,2.78615 5.68689,-10e-6 10.41071,-1.21536 14.17148,-3.64607 3.76066,-2.4307 6.74171,-5.93917 8.94317,-10.52542 z m 93.35292,-23.38983 c -2.15558,1.10072 -4.31111,1.65107 -6.4666,1.65105 -2.75179,2e-5 -4.93025,-0.61912 -6.53539,-1.85743 -1.60522,-1.23826 -2.40782,-3.09569 -2.40777,-5.57228 l 0,-23.94018 16.23529,0 0,-17.47358 -16.23529,0 0,-26.69192 -14.30908,0 -13.07078,26.69192 -11.14457,0 0,17.47358 8.94317,0 -0.13758,26.00399 c -2e-5,4.35695 0.55033,8.26671 1.65104,11.72931 1.10069,3.46262 2.71733,6.42074 4.84995,8.87437 2.13258,2.45364 4.7582,4.334 7.87687,5.64108 3.11862,1.30708 6.67295,1.96061 10.66301,1.96062 7.7507,-10e-6 14.81351,-1.60519 21.18843,-4.81556 z m 36.11667,-17.47358 c 0.0458,-1.92617 0.32101,-3.72627 0.82552,-5.40029 0.50446,-1.67393 1.22679,-3.1186 2.167,-4.334 0.94015,-1.2153 2.09817,-2.16695 3.47408,-2.85494 1.37583,-0.68788 2.93515,-1.03185 4.67797,-1.0319 5.5493,5e-5 9.12656,2.93524 10.7318,8.80558 z m 6.74178,20.05334 c -2.56834,-1.44464 -4.40283,-3.81802 -5.50349,-7.12014 l 42.23927,-5.50349 c 0.0917,-0.55031 0.16048,-1.12359 0.20638,-1.71984 0.0458,-0.59617 0.0687,-1.21531 0.0688,-1.85742 -8e-5,-4.76965 -0.67655,-9.2527 -2.02941,-13.44915 -1.35302,-4.19636 -3.39389,-7.86535 -6.12264,-11.00698 -2.72887,-3.14151 -6.13415,-5.61808 -10.21585,-7.42971 -4.0818,-1.8115 -8.82856,-2.71728 -14.24027,-2.71735 -5.36594,7e-5 -10.4108,0.85999 -15.1346,2.57976 -4.72385,1.71991 -8.85146,4.17354 -12.38285,7.36092 -3.53141,3.18749 -6.31755,7.017 -8.35842,11.48853 -2.04088,4.47163 -3.06132,9.45916 -3.06132,14.96261 0,5.22834 0.97457,10.06682 2.92373,14.51545 1.94915,4.44867 4.67796,8.28964 8.18644,11.52293 3.50846,3.23331 7.70486,5.75574 12.58923,7.5673 4.88432,1.81156 10.28461,2.71734 16.2009,2.71735 10.64002,-10e-6 20.22525,-1.92622 28.75573,-5.77867 l -3.43969,-18.91824 c -7.42977,3.30211 -14.35498,4.95316 -20.77567,4.95314 -4.03593,2e-5 -7.33802,-0.72231 -9.90627,-2.167 z m 229.93356,-48.89149 0,-411.77733 -291.17052,-291.170522 -411.77733,1.9e-5 -291.170521,291.170553 1.8e-5,411.77732 291.170553,291.17052 411.77732,0 z M 708.85332,991.40689 322.8506,991.40691 49.905445,718.46178 49.905427,332.45905 322.85055,59.513901 l 386.00273,-1.8e-5 272.94512,272.945127 0,386.00273 z M 695.38023,958.87998 336.32369,958.88 82.432352,704.98869 82.432336,345.93214 336.32364,92.040808 l 359.05655,-1e-5 253.8913,253.891302 0,359.05655 z M 310.37199,378.21125 c 0,-23.90429 -2.32251,-40.84182 -6.96699,-50.81263 -4.64484,-9.97026 -14.11994,-18.23775 -28.42535,-24.8025 -14.30569,-6.56416 -31.61479,-9.84638 -51.92734,-9.84669 -18.57873,3.1e-4 -34.4325,3.00385 -47.56136,9.01065 -13.12895,6.00739 -22.63502,14.33681 -28.51824,24.98829 -5.88325,10.65203 -8.82487,27.49666 -8.82486,50.53395 -1e-5,15.97785 2.07461,29.10675 6.22385,39.38675 4.14922,10.28036 9.3822,18.3311 15.69897,24.15225 6.3167,5.82146 19.19789,15.17271 38.6436,28.05377 19.44557,12.75746 31.64554,21.86099 36.59995,27.31062 4.83034,5.44984 7.24557,17.03053 7.24568,34.74209 -1.1e-4,8.05081 -1.26965,14.11983 -3.80862,18.20708 -2.53919,4.08735 -6.40974,6.131 -11.61166,6.13096 -5.20212,4e-5 -8.82496,-1.6101 -10.86852,-4.83045 -2.04374,-3.22025 -3.06548,-10.46592 -3.06548,-21.73703 l 0,-36.59995 -72.64254,0 0,19.69337 c 0,22.54217 2.29135,39.94416 6.8741,52.20603 4.58271,12.26193 14.27457,22.35633 29.0756,30.28321 14.80093,7.92689 32.66739,11.89033 53.59942,11.89034 19.07397,-1e-5 35.79474,-3.43706 50.16237,-10.31116 14.36733,-6.87409 24.05919,-15.3893 29.0756,-25.54565 5.01605,-10.15629 7.52417,-25.94813 7.52435,-47.37557 -1.8e-4,-29.47803 -4.52099,-50.84346 -13.56242,-64.09636 -9.04177,-13.25263 -30.96457,-30.22111 -65.76844,-50.90552 -12.13815,-7.18355 -19.50768,-13.3145 -22.1086,-18.39287 -2.72495,-5.07795 -4.08738,-12.63327 -4.0873,-22.66596 -8e-5,-7.8028 1.20753,-13.6241 3.62284,-17.46394 2.41513,-3.83933 5.97604,-5.75913 10.68272,-5.75938 4.33492,2.5e-4 7.43136,1.42462 9.28933,4.27309 1.85776,2.84897 2.78669,9.47536 2.7868,19.87916 l 0,22.29439 72.64254,0 z m 17.83551,-79.14508 0,60.19485 46.26085,0 0,240.59359 78.21614,0 0,-240.59359 46.44664,0 0,-60.19485 z m 289.26967,215.51241 c 0,17.71172 -0.74327,28.92083 -2.22944,33.62737 -1.48641,4.70664 -4.89249,7.05993 -10.21826,7.05989 -5.20213,4e-5 -8.51532,-2.04361 -9.93959,-6.13096 -1.42445,-4.08725 -2.13654,-14.86286 -2.13654,-32.32686 l 0,-140.45464 c 0,-15.48197 1.08366,-24.80226 3.25126,-27.96087 2.16742,-3.15812 5.29482,-4.73731 9.38223,-4.73756 4.83034,2.5e-4 8.01967,1.95101 9.568,5.85227 1.54811,3.90177 2.32234,12.85048 2.32234,26.84616 z m 78.21614,-90.84962 c 0,-30.96422 -0.74334,-52.6393 -2.22944,-65.0253 -1.48648,-12.38552 -6.13114,-23.84234 -13.93399,-34.37051 -7.80321,-10.52762 -18.11435,-18.42354 -30.93347,-23.68779 -12.8194,-5.26365 -27.27978,-7.89562 -43.38116,-7.89593 -16.96859,3.1e-4 -31.8315,2.7871 -44.58877,8.3604 -12.75739,5.57389 -22.88275,13.5627 -30.3761,23.96646 -7.49342,10.40431 -11.95229,21.8921 -13.37664,34.46341 -1.42437,12.57178 -2.13654,33.96818 -2.13654,64.18926 l 0,51.46287 c 0,30.96452 0.74313,52.6396 2.22944,65.0253 1.48627,12.38582 6.13093,23.84264 13.93399,34.37051 7.803,10.52792 18.11414,18.42384 30.93346,23.68779 12.8192,5.26395 27.27957,7.89592 43.38116,7.89593 16.96839,-1e-5 31.8313,-2.7868 44.58878,-8.3604 12.75718,-5.57359 22.88254,-13.5624 30.3761,-23.96646 7.4932,-10.40402 11.95208,-21.89181 13.37663,-34.46341 1.42417,-12.57149 2.13655,-33.96788 2.13655,-64.18926 z m 127.63538,-68.55525 c 3.22018,3.09669 4.83033,9.785 4.83045,20.06495 l 0,24.70962 c -1.2e-4,11.14738 -1.39352,18.48594 -4.1802,22.0157 -2.78691,3.53012 -7.77218,5.29509 -14.95582,5.29492 -1.61024,1.7e-4 -3.53004,-0.0618 -5.75938,-0.18579 l 0,-76.54406 c 10.15623,2.5e-4 16.84454,1.54847 20.06495,4.64466 z m -98.28109,244.6809 78.21614,0 0,-121.13283 20.99388,0 c 17.09223,0 30.93332,-2.35318 41.5233,-7.05989 10.58967,-4.70646 17.8663,-11.4567 21.82992,-20.25074 3.96326,-8.79374 5.94517,-22.78964 5.94517,-41.98776 l 0,-26.1959 c 0,-18.82614 -1.02201,-32.72915 -3.06548,-41.70909 -2.04383,-8.97941 -5.94534,-16.62762 -11.70455,-22.94464 -5.75955,-6.31645 -14.36765,-11.1469 -25.82433,-14.49135 -11.45697,-3.34386 -27.83714,-5.01594 -49.14055,-5.01624 l -78.7735,0 z"
       inkscape:connector-curvature="0"
       sodipodi:nodetypes="ccscccscccccccccssccccccccccccccccccccccccsscscssscccccccsscccccccscccccccccccccccccscccscccccccccsccsssscscccccccccccccccccscsccccccccssccsssscccccscsccccccccccccccsscccccccssccscccccccccsccsssssscccccccsccccccscsscccccccccccccscccccsssccccccccccccccsssssccccccccsccccccccscccsccccccccsccccccsccccccccccccsssccssssssccccccccsccccccccccccssssscccccscccccssccccccccccccccccccssssssscccccccccccccccccssssccccscccccccccccccccssssssccsccccccccccccccccccccccccccccscccccsccccccccsccsssssccccccccccccscccccccccscccsscccsssccccccssssssssccsscccscccccccsscsscccccc" />
  </g>
</svg>
