<?xml version="1.0" encoding="UTF-8" standalone="no"?>
<!-- Created with Inkscape (http://www.inkscape.org/) -->

<svg
   xmlns:dc="http://purl.org/dc/elements/1.1/"
   xmlns:cc="http://creativecommons.org/ns#"
   xmlns:rdf="http://www.w3.org/1999/02/22-rdf-syntax-ns#"
   xmlns:svg="http://www.w3.org/2000/svg"
   xmlns="http://www.w3.org/2000/svg"
   xmlns:sodipodi="http://sodipodi.sourceforge.net/DTD/sodipodi-0.dtd"
   xmlns:inkscape="http://www.inkscape.org/namespaces/inkscape"
   width="744.09448819"
   height="1052.3622047"
   id="svg2"
   version="1.1"
   inkscape:version="0.48.5 r10040"
   sodipodi:docname="pipicon.svg"
   inkscape:export-filename="C:\cygwin64\home\mlevine\Dropbox\pipicon.png"
   inkscape:export-xdpi="90"
   inkscape:export-ydpi="90">
  <defs
     id="defs4" />
  <sodipodi:namedview
     id="base"
     pagecolor="#ffffff"
     bordercolor="#666666"
     borderopacity="1.0"
     inkscape:pageopacity="0.0"
     inkscape:pageshadow="2"
     inkscape:zoom="1.979899"
     inkscape:cx="329.1096"
     inkscape:cy="566.8061"
     inkscape:document-units="px"
     inkscape:current-layer="text2985"
     showgrid="false"
     inkscape:window-width="1235"
     inkscape:window-height="934"
     inkscape:window-x="477"
     inkscape:window-y="150"
     inkscape:window-maximized="0" />
  <metadata
     id="metadata7">
    <rdf:RDF>
      <cc:Work
         rdf:about="">
        <dc:format>image/svg+xml</dc:format>
        <dc:type
           rdf:resource="http://purl.org/dc/dcmitype/StillImage" />
        <dc:title></dc:title>
      </cc:Work>
    </rdf:RDF>
  </metadata>
  <g
     inkscape:label="Layer 1"
     inkscape:groupmode="layer"
     id="layer1">
    <g
       style="font-size:40px;font-style:normal;font-variant:normal;font-weight:900;font-stretch:normal;text-align:start;line-height:125%;letter-spacing:0px;word-spacing:0px;writing-mode:lr-tb;text-anchor:start;fill:#ffffff;fill-opacity:1;stroke:none;font-family:Arial Black;-inkscape-font-specification:'Arial Black, Heavy'"
       id="text2985">
      <path
         id="path5207"
         style="font-size:72px;font-weight:normal;fill:#109d58;fill-opacity:1;font-family:Paytone One;-inkscape-font-specification:Paytone One"
         d="m 322.23867,446.27064 c -19.80515,0 -35.86041,-16.05526 -35.86041,-35.86041 0,-19.80517 16.05526,-35.86042 35.86041,-35.86042 19.80517,0 35.86042,16.05525 35.86042,35.86042 0,19.80515 -16.05525,35.86041 -35.86042,35.86041 z m 11.28873,-21.04447 c -1.03127,0.56251 -2.01564,0.84376 -2.95312,0.84375 -0.93752,10e-6 -1.71096,-0.2871 -2.32031,-0.86133 -0.6094,-0.57421 -0.91408,-1.43554 -0.91407,-2.58399 l 0,-21.51562 -15.25781,0 0,22.21875 c 0,2.1797 0.28125,4.16016 0.84375,5.9414 0.5625,1.78126 1.38867,3.29884 2.47852,4.55274 1.08983,1.25391 2.43163,2.2207 4.02539,2.90039 1.59374,0.67969 3.41014,1.01953 5.44922,1.01953 3.44529,0 6.58591,-0.82031 9.42187,-2.46094 z m -21.72656,-36.07032 c 0,1.0313 0.21094,1.98638 0.63281,2.86524 0.42188,0.87895 0.99609,1.65238 1.72266,2.32031 0.72656,0.66801 1.58788,1.18949 2.58399,1.56445 0.99608,0.37504 2.06834,0.56254 3.21679,0.5625 1.05468,4e-5 2.06835,-0.1816 3.04102,-0.54492 0.97264,-0.36324 1.83397,-0.86714 2.58398,-1.51172 0.74998,-0.64449 1.34764,-1.41206 1.79297,-2.30273 0.44529,-0.89058 0.66795,-1.87495 0.66797,-2.95313 -2e-5,-0.86714 -0.19338,-1.72846 -0.58008,-2.58398 -0.38674,-0.85542 -0.93166,-1.62886 -1.63476,-2.32031 -0.70315,-0.69136 -1.55275,-1.25386 -2.54883,-1.6875 -0.99611,-0.43354 -2.10353,-0.65034 -3.32227,-0.65039 -1.0547,5e-5 -2.07423,0.17583 -3.05859,0.52734 -0.98438,0.35162 -1.85157,0.84966 -2.60156,1.49414 -0.75001,0.64458 -1.35352,1.41216 -1.81055,2.30273 -0.45704,0.89068 -0.68555,1.86333 -0.68555,2.91797 z"
         inkscape:connector-curvature="0"
         sodipodi:nodetypes="ssssscccsccsssssccsccccccsccccccccs" />
    </g>
  </g>
</svg>
